<svg width="9" height="12" viewBox="0 0 9 12" fill="none" xmlns="http://www.w3.org/2000/svg">
<path id="path32" d="M1.42366 3.47739C1.56907 2.99279 1.80954 2.54199 2.13103 2.15129C2.45192 1.76777 2.8584 1.46496 3.31773 1.26722C3.83754 1.04988 4.39723 0.944198 4.9605 0.95702C5.419 0.954582 5.87466 1.02903 6.30853 1.17726C6.7211 1.3157 7.10374 1.53094 7.43628 1.81162C7.76432 2.09108 8.02877 2.43746 8.2119 2.82752C8.40765 3.25227 8.50572 3.71548 8.49889 4.1831C8.51039 4.64284 8.4253 5.09989 8.24913 5.52471C8.0847 5.89065 7.85972 6.22624 7.58365 6.51735C7.3031 6.81317 6.99099 7.07738 6.65291 7.30526C6.30388 7.54101 5.9533 7.77056 5.59961 8.00476C5.24593 8.23896 4.90155 8.48402 4.56803 8.74924C4.23139 9.01675 3.93377 9.32997 3.68382 9.67984H8.56093V11.4774H0.981563C0.969797 10.9454 1.05711 10.4157 1.23907 9.91559C1.40536 9.48394 1.64232 9.08297 1.94023 8.72907C2.24771 8.36848 2.59596 8.04475 2.97801 7.76435C3.3772 7.46966 3.79759 7.1698 4.23917 6.86477C4.46359 6.7076 4.70403 6.54785 4.9605 6.38551C5.20978 6.22862 5.44398 6.04897 5.66011 5.84887C5.86792 5.65444 6.04568 5.43019 6.18753 5.18349C6.33282 4.92803 6.40675 4.63823 6.4016 4.3444C6.41562 4.12898 6.38451 3.913 6.31025 3.71029C6.23599 3.50758 6.12022 3.3226 5.97035 3.16719C5.82204 3.02708 5.64731 2.91789 5.45635 2.84599C5.2654 2.7741 5.06203 2.74093 4.85812 2.74842C4.58406 2.73939 4.31367 2.81346 4.0825 2.96091C3.87074 3.1044 3.69631 3.29636 3.57369 3.52082C3.44327 3.76042 3.35115 4.01894 3.30067 4.28701C3.24724 4.56143 3.22023 4.84033 3.22 5.1199H1.22356C1.19754 4.56505 1.26519 4.00978 1.42366 3.47739Z" fill="#010101"/>
</svg>
