<svg width="9" height="9" viewBox="0 0 9 9" fill="none" xmlns="http://www.w3.org/2000/svg">
<path id="path12" d="M1.0541 3.20094C1.06538 2.76734 1.19289 2.34472 1.4233 1.9772C1.63493 1.65857 1.91737 1.39316 2.24856 1.20171C2.59802 0.998893 2.97934 0.856773 3.37631 0.781385C3.79097 0.697843 4.21292 0.655759 4.63592 0.655754C5.02509 0.656685 5.41377 0.683629 5.79935 0.736405C6.17241 0.781959 6.53582 0.886672 6.87591 1.04661C7.191 1.19599 7.46434 1.42081 7.6717 1.70113C7.89232 2.02926 8.00113 2.41982 7.98195 2.81474V6.77754C7.98137 7.10777 8.00106 7.43772 8.0409 7.76553C8.0608 8.01287 8.131 8.25354 8.24721 8.47279H6.12356C6.08423 8.3545 6.05262 8.23379 6.02894 8.1114C6.0042 7.9874 5.98659 7.86208 5.97619 7.73606C5.65198 8.07408 5.24585 8.32253 4.79725 8.45728C4.34835 8.59464 3.88144 8.66417 3.41199 8.66356C3.06885 8.6665 2.72694 8.62214 2.39592 8.53172C2.09605 8.45066 1.81545 8.31038 1.57067 8.11916C1.33352 7.93011 1.14431 7.6878 1.01843 7.4119C0.877765 7.09157 0.80944 6.74418 0.818314 6.39445C0.804085 6.02463 0.883032 5.65716 1.0479 5.32581C1.19107 5.06182 1.39465 4.83542 1.64202 4.66508C1.89324 4.49303 2.17249 4.36602 2.46729 4.28974C2.77355 4.2061 3.08429 4.13981 3.39803 4.09122C3.70828 4.04158 4.01853 4.00281 4.32878 3.97334C4.60213 3.94894 4.8733 3.90436 5.14007 3.83995C5.34258 3.79502 5.53272 3.70606 5.69697 3.57939C5.76653 3.51891 5.82026 3.44237 5.85351 3.35642C5.88676 3.27047 5.89852 3.1777 5.88777 3.08617C5.89719 2.90034 5.8593 2.71517 5.77764 2.54797C5.70893 2.42006 5.60714 2.31294 5.4829 2.23777C5.35211 2.1589 5.20722 2.10622 5.05631 2.08267C4.8826 2.05836 4.70739 2.04644 4.53199 2.047C4.18758 2.02747 3.84616 2.12056 3.55936 2.31222C3.32357 2.48903 3.18706 2.77752 3.14673 3.19629L1.0541 3.20094ZM5.88777 4.75194C5.79121 4.83512 5.67882 4.8979 5.55736 4.93651C5.41704 4.98198 5.27406 5.01875 5.12922 5.04663C4.9772 5.07558 4.81742 5.1004 4.64988 5.12108C4.4839 5.13969 4.31637 5.16451 4.14883 5.19398C3.99148 5.22387 3.83607 5.26324 3.68346 5.31185C3.54134 5.35642 3.40727 5.42345 3.28634 5.51038C3.17324 5.59202 3.07993 5.69803 3.01332 5.82058C2.93862 5.97116 2.90289 6.13808 2.90939 6.30604C2.90469 6.46738 2.94041 6.62733 3.01332 6.77134C3.07713 6.89774 3.17353 7.00482 3.29255 7.08154C3.41935 7.15823 3.55924 7.21081 3.70517 7.23664C3.86585 7.26612 4.02891 7.28065 4.19227 7.28007C4.52408 7.29901 4.85483 7.22772 5.14938 7.07379C5.35661 6.95594 5.52936 6.7859 5.65043 6.58057C5.75444 6.4016 5.82242 6.20401 5.85054 5.99894C5.87094 5.84461 5.88284 5.68928 5.88622 5.53364L5.88777 4.75194Z" fill="#010101"/>
</svg>
