<svg width="31" height="18" viewBox="0 0 31 18" fill="none" xmlns="http://www.w3.org/2000/svg">
<g id="Frame">
<path id="Vector" d="M4.013 10.19L9.306 15.483C9.40151 15.5753 9.47769 15.6856 9.5301 15.8076C9.58251 15.9296 9.61009 16.0608 9.61125 16.1936C9.6124 16.3264 9.5871 16.4581 9.53682 16.581C9.48654 16.7039 9.41229 16.8155 9.31839 16.9094C9.2245 17.0033 9.11285 17.0776 8.98995 17.1278C8.86706 17.1781 8.73538 17.2034 8.6026 17.2023C8.46982 17.2011 8.3386 17.1735 8.21659 17.1211C8.09459 17.0687 7.98425 16.9925 7.892 16.897L0.820997 9.82601C0.633526 9.63849 0.528212 9.38418 0.528212 9.11901C0.528212 8.85385 0.633526 8.59954 0.820997 8.41201L7.891 1.34101C8.07851 1.15337 8.33287 1.0479 8.59814 1.04781C8.86341 1.04772 9.11786 1.15301 9.3055 1.34051C9.49314 1.52802 9.59861 1.78239 9.5987 2.04766C9.5988 2.31293 9.49351 2.56737 9.306 2.75501L3.871 8.19001L28.67 8.19001C28.9352 8.19001 29.1896 8.29537 29.3771 8.48291C29.5646 8.67044 29.67 8.9248 29.67 9.19001C29.67 9.45523 29.5646 9.70958 29.3771 9.89712C29.1896 10.0847 28.9352 10.19 28.67 10.19L4.013 10.19Z" fill="#604DD5"/>
</g>
</svg>
