<svg width="8" height="9" viewBox="0 0 8 9" fill="none" xmlns="http://www.w3.org/2000/svg">
<path id="path28" d="M4.09063 2.22847C3.79428 2.21794 3.50169 2.29743 3.25142 2.45646C3.02494 2.60842 2.83607 2.80998 2.69917 3.04584C2.55152 3.29162 2.44661 3.56066 2.38893 3.84151C2.3306 4.12526 2.30097 4.41417 2.3005 4.70386C2.30123 4.98584 2.33086 5.26701 2.38893 5.54295C2.4429 5.81502 2.53976 6.07678 2.6759 6.31845C2.80733 6.548 2.99192 6.74267 3.21418 6.88612C3.46153 7.03929 3.74865 7.11592 4.03944 7.10636C4.54049 7.10636 4.9252 6.96677 5.19667 6.68604C5.48165 6.37446 5.65941 5.97987 5.70393 5.56001H7.72055C7.58197 6.57126 7.18898 7.34211 6.5416 7.87255C5.89421 8.40299 5.06378 8.66821 4.0503 8.66821C3.51698 8.67484 2.98731 8.57955 2.48975 8.38748C2.03204 8.20879 1.61751 7.93494 1.27358 7.58406C0.935148 7.23025 0.671374 6.81197 0.497961 6.35412C0.307264 5.85306 0.212535 5.32059 0.21873 4.78451C0.213476 4.22656 0.300489 3.67158 0.476242 3.14201C0.636423 2.65724 0.894628 2.2106 1.2348 1.82986C1.57561 1.45768 1.99321 1.16397 2.45872 0.969056C2.98204 0.754383 3.54369 0.648827 4.10925 0.658856C4.55018 0.65746 4.9892 0.71696 5.41385 0.83567C5.81628 0.946894 6.19557 1.12916 6.53384 1.37387C6.88011 1.62296 7.16445 1.94835 7.36484 2.32487C7.56524 2.70139 7.67633 3.11895 7.68952 3.54526H5.64188C5.5002 2.66843 4.98312 2.2295 4.09063 2.22847Z" fill="#010101"/>
</svg>
