<svg width="10" height="12" viewBox="0 0 10 12" fill="none" xmlns="http://www.w3.org/2000/svg">
<path id="path10" d="M7.34042 3.76122C7.2049 3.54046 7.03346 3.34388 6.83317 3.17959C6.62302 3.01177 6.38665 2.87971 6.13356 2.78874C5.87064 2.69529 5.59353 2.64806 5.3145 2.64915C4.85317 2.63769 4.39657 2.74448 3.98819 2.95935C3.63262 3.1542 3.3293 3.43192 3.10398 3.76897C2.87308 4.12281 2.70612 4.51444 2.61068 4.92602C2.50695 5.36567 2.45489 5.81592 2.45556 6.26763C2.45514 6.70194 2.50723 7.1347 2.61068 7.55651C2.70796 7.9583 2.87492 8.33993 3.10398 8.68409C3.33048 9.01811 3.63367 9.29306 3.98819 9.48595C4.39657 9.70083 4.85317 9.80762 5.3145 9.79615C6.02187 9.79615 6.57463 9.58005 6.97278 9.14784C7.39029 8.67063 7.64558 8.07326 7.70186 7.44174H9.93565C9.88768 8.05814 9.73338 8.66159 9.47959 9.22539C9.24736 9.73661 8.91689 10.1972 8.50696 10.581C8.09717 10.9574 7.61613 11.248 7.09222 11.4356C6.51927 11.6369 5.91556 11.7366 5.30829 11.7302C4.56315 11.7412 3.82378 11.5981 3.13656 11.3099C2.51624 11.0467 1.9605 10.6519 1.50775 10.1529C1.05813 9.64861 0.712806 9.06033 0.491687 8.42197C0.251696 7.73305 0.132057 7.00798 0.138004 6.27849C0.131159 5.53425 0.250753 4.79424 0.491687 4.09003C0.712456 3.44266 1.05761 2.84467 1.50775 2.32965C1.95788 1.8223 2.5139 1.41991 3.13656 1.15089C4.3496 0.64892 5.6999 0.58638 6.95416 0.974074C7.45552 1.13296 7.92459 1.3798 8.33942 1.70304C8.75072 2.02796 9.09344 2.43125 9.34773 2.88956C9.62255 3.39043 9.793 3.94179 9.84878 4.51035H7.60879C7.57373 4.24438 7.48223 3.98896 7.34042 3.76122Z" fill="#010101"/>
</svg>
