<svg width="9" height="9" viewBox="0 0 9 9" fill="none" xmlns="http://www.w3.org/2000/svg">
<path id="path30" d="M3.1643 6.64881C3.47455 6.95901 3.93062 7.10481 4.52009 7.10481C4.90537 7.11571 5.28461 7.00738 5.60596 6.79461C5.86325 6.64125 6.06073 6.40497 6.16596 6.12457H8.00728C7.71565 7.03449 7.26527 7.6854 6.65615 8.07728C5.99276 8.48553 5.22424 8.69044 4.44563 8.66666C3.89247 8.67712 3.34236 8.58238 2.82458 8.38748C2.36201 8.20811 1.94467 7.92903 1.60221 7.57011C1.26 7.20498 0.996053 6.77376 0.826585 6.30294C0.640108 5.78315 0.547658 5.23433 0.553565 4.68215C0.548391 4.13895 0.643578 3.59946 0.83434 3.09082C1.00851 2.61718 1.27823 2.18442 1.62675 1.81941C1.97527 1.45441 2.39513 1.16496 2.86026 0.969054C3.36115 0.75754 3.90039 0.651927 4.44407 0.658855C5.03126 0.645337 5.61299 0.774117 6.13959 1.0342C6.60762 1.2743 7.01336 1.61998 7.32473 2.0439C7.63958 2.47746 7.86766 2.96778 7.99642 3.48788C8.13698 4.04128 8.18933 4.6134 8.15155 5.18312H2.64774C2.67773 5.85625 2.84991 6.34482 3.1643 6.64881ZM5.5284 2.64879C5.27865 2.37271 4.89704 2.23622 4.38668 2.23622C4.09956 2.22615 3.81413 2.28407 3.55366 2.40528C3.34883 2.5059 3.16793 2.64922 3.02314 2.8256C2.89612 2.98236 2.80124 3.1626 2.74392 3.35604C2.69376 3.51904 2.66151 3.68703 2.64774 3.85701H6.06048C5.99864 3.41272 5.81441 2.99439 5.5284 2.64879Z" fill="#010101"/>
</svg>
