<svg width="29" height="28" viewBox="0 0 29 28" fill="none" xmlns="http://www.w3.org/2000/svg">
<path id="path38" fill-rule="evenodd" clip-rule="evenodd" d="M14.5097 8.60154e-08C11.7422 -0.00030668 9.03683 0.819932 6.73562 2.35699C4.43441 3.89404 2.64075 6.07888 1.58148 8.63519C0.5222 11.1915 0.244887 14.0045 0.784604 16.7184C1.32432 19.4323 2.65683 21.9252 4.61361 23.8819C6.57039 25.8386 9.06356 27.1712 11.7778 27.7111C14.4921 28.251 17.3055 27.9741 19.8624 26.9152C22.4192 25.8564 24.6046 24.0633 26.1421 21.7626C27.6797 19.4619 28.5003 16.757 28.5003 13.99C28.5006 12.1529 28.1388 10.3337 27.4358 8.63638C26.7328 6.93904 25.7023 5.39678 24.4031 4.09767C23.104 2.79856 21.5616 1.76804 19.864 1.06496C18.1665 0.361873 16.3471 7.47228e-08 14.5097 8.60154e-08ZM14.5097 23.5054C12.397 23.5028 10.3449 22.7987 8.67573 21.5038C7.00656 20.2088 5.81479 18.3962 5.28756 16.3506L7.87968 15.8279C8.34115 17.5078 9.42304 18.9499 10.9068 19.8631C12.3906 20.7763 14.1657 21.0924 15.8736 20.7476C17.5815 20.4028 19.0948 19.4228 20.108 18.0056C21.1212 16.5883 21.5586 14.8394 21.3321 13.1121L23.9226 12.5895C24.1243 13.9425 24.0317 15.3232 23.6512 16.6372C23.2707 17.9513 22.6113 19.1679 21.7178 20.204C20.8244 21.2401 19.718 22.0713 18.474 22.6411C17.2301 23.2108 15.8779 23.5056 14.5097 23.5054Z" fill="#F26A51"/>
</svg>
