<svg width="8" height="9" viewBox="0 0 8 9" fill="none" xmlns="http://www.w3.org/2000/svg">
<path id="path22" d="M2.27431 0.857386V1.91827H2.3193C2.5588 1.50069 2.91817 1.16461 3.35087 0.953548C3.75478 0.756165 4.19814 0.652767 4.64771 0.651104C5.11743 0.635366 5.58562 0.712857 6.02521 0.8791C6.358 1.01314 6.64998 1.23182 6.87219 1.51346C7.08802 1.80406 7.23688 2.1388 7.30809 2.49369C7.39408 2.91837 7.43567 3.35084 7.43219 3.78412V8.46969H5.33956V4.17342C5.33956 3.54372 5.24183 3.07531 5.04638 2.76511C4.85092 2.45491 4.50034 2.29981 3.99929 2.29981C3.4305 2.29981 3.01684 2.46939 2.75829 2.80854C2.49975 3.14769 2.37307 3.70554 2.37824 4.48207V8.47589H0.285614V0.857386H2.27431Z" fill="#010101"/>
</svg>
