<svg width="6" height="9" viewBox="0 0 6 9" fill="none" xmlns="http://www.w3.org/2000/svg">
<path id="path14" d="M2.44432 0.857382V2.27189H2.47379C2.57231 2.03443 2.7062 1.81323 2.87091 1.61582C3.03621 1.41577 3.23013 1.24121 3.44642 1.09779C3.6608 0.95608 3.89358 0.844404 4.13827 0.765873C4.38613 0.687425 4.64461 0.647666 4.90459 0.647997C5.0599 0.650762 5.21402 0.675835 5.3622 0.722445V2.6705C5.26292 2.65034 5.14503 2.63328 5.00852 2.61777C4.87608 2.60386 4.74302 2.59662 4.60985 2.59605C4.27527 2.58581 3.94272 2.65156 3.63722 2.78838C3.3831 2.90595 3.16274 3.08572 2.99656 3.31106C2.82895 3.54291 2.71116 3.80696 2.65063 4.08656C2.5789 4.40042 2.54402 4.72158 2.5467 5.04353V8.47744H0.454071V0.857382H2.44432Z" fill="#010101"/>
</svg>
