<svg width="17" height="23" viewBox="0 0 17 23" fill="none" xmlns="http://www.w3.org/2000/svg">
<g id="Frame">
<path id="Vector" d="M14.8 10.98H2.79999C2.24771 10.98 1.79999 11.4277 1.79999 11.98V20.98C1.79999 21.5323 2.24771 21.98 2.79999 21.98H14.8C15.3523 21.98 15.8 21.5323 15.8 20.98V11.98C15.8 11.4277 15.3523 10.98 14.8 10.98Z" stroke="#604DD5" stroke-width="2" stroke-linecap="round"/>
<path id="Vector_2" d="M8.79999 17.98C9.90456 17.98 10.8 17.0846 10.8 15.98C10.8 14.8754 9.90456 13.98 8.79999 13.98C7.69542 13.98 6.79999 14.8754 6.79999 15.98C6.79999 17.0846 7.69542 17.98 8.79999 17.98Z" fill="#604DD5"/>
<path id="Vector_3" d="M8.79999 17.98V18.48" stroke="#604DD5" stroke-width="2" stroke-linecap="square"/>
<path id="Vector_4" d="M12.8 10.98V6.166C12.8 3.854 11.01 1.98 8.79999 1.98C6.58999 1.98 4.79999 3.854 4.79999 6.166V10.656" stroke="#604DD5" stroke-width="2"/>
</g>
</svg>
